<?xml version="1.0" encoding="utf-8"?>
<!-- Generator: Adobe Illustrator 19.0.0, SVG Export Plug-In . SVG Version: 6.00 Build 0)  -->
<svg version="1.1" id="Capa_1" xmlns="http://www.w3.org/2000/svg" xmlns:xlink="http://www.w3.org/1999/xlink" x="0px" y="0px"
	 viewBox="-212 360.8 170.2 120.1" style="enable-background:new -212 360.8 170.2 120.1;" xml:space="preserve">
<style type="text/css">
	.st0{fill:#00657E;}
</style>
<g id="XMLID_41_">
	<g id="XMLID_49_">
		<path id="XMLID_51_" class="st0" d="M-160.3,444c-1.4,1.5-2.8,3-4.2,4.5c-8.8,9.6-26.5,28.8-26.5,28.8l-0.9,0.9
			c-1,1.1-2,1.7-3.9,2.1c0,0-1,0.1-1.4,0.1c-0.4,0-1.3,0-1.3,0c-3.8,0-6.8-3.9-6.3-7.6l0,0c0.1-1.3,0.7-2.4,1.7-3.3
			c4.7-4.4,20-18.4,26.9-24.7l6.5-6c0.8-0.7,1.5-1.4,2.3-2.1c1-0.9,1.7-0.9,2.5-0.1c1.4,1.3,2.7,2.7,4,4c0.3,0.3,0.6,0.6,0.9,0.9
			C-159.4,442.5-159.5,443.2-160.3,444z"/>
		<path id="XMLID_50_" class="st0" d="M-149.2,381.7c9.8,19.6,24.4,34.3,43.9,44c-5.4,7.2-16.1,11.7-26.3,10.7
			c-14.7-1.6-24.2-11.9-27.1-22.7C-162,401.9-158.1,388.7-149.2,381.7z"/>
	</g>
	<g id="XMLID_46_">
		<path id="XMLID_48_" class="st0" d="M-43.4,400.7v6.9c0,14.9-12.1,27-27,27h-22.9c1.8-2.2,3.5-4.5,4.8-7c0.2-0.3,0.4-0.6,0.5-1
			h17.6c10.5,0,19-8.5,19-19v-6.9c0-10.5-8.5-19-19-19h-18.7c-0.2-0.4-0.4-0.7-0.7-1.1c-1.6-2.5-3.4-4.8-5.4-6.9h24.8
			C-55.5,373.6-43.4,385.8-43.4,400.7z"/>
		<path id="XMLID_47_" class="st0" d="M-168.7,427.6c1.4,2.5,3,4.8,4.8,7h-15.6c-14.9,0-27-12.1-27-27v-6.9c0-14.9,12.1-27,27-27
			h17.5c-2,2.1-3.8,4.5-5.4,6.9c-0.2,0.4-0.4,0.7-0.7,1.1h-11.4c-10.5,0-19,8.5-19,19v6.9c0,10.5,8.5,19,19,19h10.3
			C-169,426.9-168.9,427.3-168.7,427.6z"/>
	</g>
	<g id="XMLID_42_">
		<path id="XMLID_43_" class="st0" d="M-91.4,381.6c-1.9-2.9-4.1-5.6-6.6-8c-0.5-0.5-1.1-1-1.6-1.5c-3.9-3.4-8.5-6.2-13.5-8
			c-5-1.9-10.3-2.9-15.9-2.9h-0.3c-5.3,0-10.4,1-15.2,2.9c-4.8,1.9-9.3,4.6-13.1,8c-0.5,0.5-1.1,1-1.6,1.5c-2.5,2.4-4.6,5.1-6.5,8
			c-4.4,6.9-6.9,15.1-6.8,23.8c0,7.7,2.1,14.9,5.6,21.2c1.6,2.9,3.5,5.6,5.7,8c2.1,2.3,4.4,4.4,7,6.3c6.2,4.5,13.7,7.4,21.8,8
			c1.2,0.1,2.3,0.2,3.5,0.2h0.3c1.1,0,2.2-0.1,3.2-0.2c8.4-0.6,16-3.5,22.4-8c2.6-1.8,4.9-3.9,7-6.3c2.2-2.4,4.1-5.1,5.7-8
			c3.6-6.5,5.6-14,5.6-22C-84.7,396.1-87.2,388.3-91.4,381.6z M-98.1,426.6c-2.2,3-4.8,5.7-7.7,8c-3.6,2.8-7.8,5-12.2,6.3
			c-3.4,1-7,1.6-10.7,1.6h-0.1c-3.7,0-7.3-0.5-10.6-1.6c-4.5-1.3-8.5-3.5-12.1-6.3c-2.9-2.3-5.5-5-7.6-8c-4.3-6.1-6.8-13.5-6.8-21.5
			c0-8.9,3.1-17.1,8.3-23.4c2.5-3.1,5.6-5.8,9-8c0.9-0.5,1.7-1,2.6-1.5c5.2-2.7,11.2-4.3,17.5-4.3h0.1c6.2,0,12.1,1.5,17.2,4.3
			c0.9,0.5,1.8,1,2.6,1.5c3.4,2.2,6.4,4.9,8.9,8c5.2,6.5,8.4,14.8,8.3,24C-91.3,413.4-93.8,420.6-98.1,426.6z"/>
	</g>
</g>
</svg>
