<?xml version="1.0" encoding="utf-8"?>
<!-- Generator: Adobe Illustrator 19.0.0, SVG Export Plug-In . SVG Version: 6.00 Build 0)  -->
<svg version="1.1" id="Capa_1" xmlns="http://www.w3.org/2000/svg" xmlns:xlink="http://www.w3.org/1999/xlink" x="0px" y="0px"
	 viewBox="-235 357.3 124.3 126.6" style="enable-background:new -235 357.3 124.3 126.6;" xml:space="preserve">
<style type="text/css">
	.st0{fill:#00657E;}
</style>
<g id="XMLID_66_">
	<path id="XMLID_76_" class="st0" d="M-171.4,370c28.8,0,52.2,23.4,52.2,52.2c0,28.8-23.4,52.2-52.2,52.2s-52.2-23.4-52.2-52.2
		S-200.2,370-171.4,370 M-171.4,362.8c-32.7,0-59.4,26.7-59.4,59.4s26.6,59.4,59.4,59.4s59.4-26.7,59.4-59.4
		S-138.6,362.8-171.4,362.8L-171.4,362.8z"/>
	<g id="XMLID_67_">
		<path id="XMLID_74_" class="st0" d="M-213.7,429.7v-10.4h22v10.3h-22V429.7z"/>
		<path id="XMLID_68_" class="st0" d="M-175.2,421.1c-5.3,0-10.1-3-10.1-9.3v-6.4c0-6.4,4.8-9.3,10.1-9.3c5.3,0,10.1,3,10.1,9.3v6.4
			C-165,418.2-169.9,421.1-175.2,421.1z M-172.8,405.7c0-1.9-1-2.6-2.4-2.6c-1.3,0-2.4,0.7-2.4,2.6v5.8c0,1.9,1,2.6,2.4,2.6
			c1.3,0,2.4-0.7,2.4-2.6V405.7z M-166.7,444.3h-8.5l22.8-47.8h8.5L-166.7,444.3z M-143.9,444.7c-5.3,0-10.1-3-10.1-9.3V429
			c0-6.4,4.8-9.3,10.1-9.3c5.3,0,10.1,3,10.1,9.3v6.4C-133.8,441.7-138.6,444.7-143.9,444.7z M-141.6,429.3c0-1.9-1-2.6-2.4-2.6
			c-1.3,0-2.4,0.7-2.4,2.6v5.8c0,1.9,1,2.6,2.4,2.6c1.3,0,2.4-0.7,2.4-2.6V429.3z"/>
	</g>
</g>
</svg>
