<?xml version="1.0" encoding="utf-8"?>
<!-- Generator: Adobe Illustrator 19.0.0, SVG Export Plug-In . SVG Version: 6.00 Build 0)  -->
<svg version="1.1" id="Capa_1" xmlns="http://www.w3.org/2000/svg" xmlns:xlink="http://www.w3.org/1999/xlink" x="0px" y="0px"
	 viewBox="-250 360.8 94.5 120.1" style="enable-background:new -250 360.8 94.5 120.1;" xml:space="preserve">
<style type="text/css">
	.st0{fill:#00657E;}
</style>
<g>
	<path class="st0" d="M-219.3,415.1v5.8c-0.1,0-0.2,0-0.3,0c-1.4,0-2.8,0-4.2,0v-5.7c0.6,0,1.3,0,1.9,0
		C-221,415.1-220.2,415.1-219.3,415.1z"/>
	<g>
		<path class="st0" d="M-155.5,386.7c-0.1,1.1-0.5,1.9-1.7,2c-1.3,0.1-2-0.6-2.1-1.9c-0.6-5.3-2.5-9.9-6-13.9
			c-4.4-5-9.9-7.7-16.5-8.4c-1.7-0.2-2.4-0.9-2.3-2.1c0.1-1.3,1-1.8,2.7-1.7c13.2,1.3,23.1,10.3,25.6,23.3
			C-155.7,385-155.7,385.8-155.5,386.7z"/>
		<path class="st0" d="M-182.3,371c8.1,0.4,15.8,7.9,16.5,15.6c0.1,1.2-0.4,2-1.6,2.2c-1.1,0.3-2-0.5-2.3-1.8
			c-0.6-3.4-2.2-6.4-4.8-8.7c-2.3-2-4.9-3.1-7.9-3.4c-1.2-0.1-2-0.8-1.8-2.1C-184.1,371.4-183.2,371-182.3,371z"/>
	</g>
	<g>
		<g>
			<rect x="-214.8" y="390.1" class="st0" width="18" height="4.5"/>
			<path class="st0" d="M-169.9,417.6v-21.1c0-1.2-0.5-2.3-1.3-3.2l-15.3-15.4c-0.8-0.8-2-1.3-3.2-1.3h-29.6c-2.5,0-4.5,2-4.5,4.5
				v2.2c-3.7,0-6.7,3-6.7,6.7v25.3c-5.8,0.9-11,4-14.6,8.6c-4.3,5.6-5.9,12.7-4.3,19.5c2.1,9.5,10.1,16.6,19.8,17.8h0.3
				c1.5,0.2,3,0.3,3.7,2.8c2.6,9.9,11.3,16.7,21.8,16.9c10.1,0.2,19.4-6.5,22.3-16c0.8-2.8,2.2-3.5,4.7-3.8
				c10.8-1.3,19.3-10.6,19.7-21.6C-156.7,429.9-161.8,421.5-169.9,417.6z M-187.9,383l11.6,11.6h-9.4c-1.2,0-2.2-1-2.2-2.2
				C-187.9,392.4-187.9,383-187.9,383z M-219.3,381.1h27v11.2c0,3.7,3,6.7,6.7,6.7h11.2v16.8v6v13.1h-44.9V381.1z M-172.8,454
				c-5.6,2.5-11.2,2.2-16.6-1.1c-1.6-1-3.3-0.7-4.2,0.7c-0.4,0.7-0.6,1.4-0.4,2.1c0.2,0.8,0.8,1.5,1.6,2c1.3,0.8,2.6,1.5,4,2
				c1.8,0.6,1.9,1.6,1.5,3.1c-2.2,7.3-9,12.3-16.6,12.3h-0.1c-7.8-0.1-14.7-5.3-16.7-12.9c-0.8-2.9-0.7-5.9,0-9.4
				c0.4-1.6-0.4-3.1-1.9-3.4c-1.7-0.4-3.1,0.4-3.6,2.2c-0.3,0.8-0.5,1.6-0.6,2.4c-0.2,1.5-1.2,1.6-2,1.6c-8.7-0.7-15.7-8.2-15.9-17
				c-0.2-8.2,5.9-15.6,13.8-17.2v18.2c0,3.7,3,6.7,6.7,6.7h29.2v-4.5h-29.2c-1.2,0-2.2-1-2.2-2.3v-18.6v-5.8v-25
				c0-1.2,1-2.2,2.2-2.2v47.2c0,2.5,2,4.5,4.5,4.5h46.4c1.7,0,3-1.3,3-3v-12.3c3.4,2.4,5.8,6.1,6.8,10.8
				C-161.5,442.7-165.6,450.7-172.8,454z"/>
			<rect x="-214.8" y="423.8" class="st0" width="9" height="4.5"/>
			<polygon class="st0" points="-214.8,405.8 -194.6,405.8 -194.6,403.6 -194.6,401.3 -214.8,401.3 			"/>
			<rect x="-214.8" y="412.6" class="st0" width="11.2" height="4.5"/>
		</g>
	</g>
</g>
</svg>
